<svg width="224" height="32" viewBox="0 0 224 32" fill="none" xmlns="http://www.w3.org/2000/svg">
<path d="M17.5486 17.626H4.19593V31.5664H0V0H19.7121V3.42547H4.19593V14.2222H17.5486V17.626Z" transform="translate(125.374)" fill="white"/>
<path d="M42.7242 16.9756H28.9345V28.1626H44.9533V31.5664H24.7385V0H44.7348V3.42547H28.9345V13.5718H42.7242V16.9756Z" transform="translate(125.374)" fill="white"/>
<path d="M68.1621 16.9756H54.3723V28.1626H70.3912V31.5664H50.1764V0H70.1726V3.42547H54.3723V13.5718H68.1621V16.9756Z" transform="translate(125.374)" fill="white"/>
<path d="M75.6142 31.5664V0H84.5962C87.3643 0 89.8119 0.607046 91.939 1.82114C94.0661 3.03523 95.7052 4.76242 96.8561 7.00271C98.0217 9.243 98.6117 11.8157 98.6263 14.7209V16.7371C98.6263 19.7145 98.0435 22.3234 96.878 24.5637C95.727 26.804 94.0734 28.5239 91.9172 29.7236C89.7755 30.9232 87.2769 31.5375 84.4213 31.5664H75.6142ZM79.8102 3.42547V28.1626H84.2246C87.459 28.1626 89.9722 27.1653 91.7642 25.1707C93.5708 23.1762 94.4741 20.336 94.4741 16.6504V14.8076C94.4741 11.2231 93.6218 8.44083 91.9172 6.4607C90.2272 4.46612 87.8232 3.45438 84.7054 3.42547H79.8102Z" transform="translate(125.374)" fill="white"/>
<path d="M26.5742 31.5664H18.9473L7.67069 11.9241V31.5664H0V0H7.67069L18.9254 19.6423V0H26.5742V31.5664Z" fill="url(#paint0_linear)"/>
<path d="M42.5275 32C38.8998 32 35.9641 30.9304 33.7204 28.7913C31.4768 26.6378 30.355 23.841 30.355 20.4011V19.794C30.355 17.3948 30.7993 15.2773 31.688 13.4417C32.5913 11.6061 33.9026 10.1897 35.6217 9.19241C37.3409 8.18067 39.3806 7.6748 41.7408 7.6748C45.0626 7.6748 47.685 8.70099 49.6082 10.7534C51.5313 12.7913 52.4929 15.6387 52.4929 19.2954V22.1355H37.8508C38.1131 23.4508 38.6885 24.4842 39.5773 25.2358C40.466 25.9874 41.617 26.3631 43.0302 26.3631C45.3612 26.3631 47.1824 25.5537 48.4936 23.935L51.8591 27.8808C50.9413 29.1382 49.6373 30.1427 47.9473 30.8943C46.2718 31.6314 44.4652 32 42.5275 32ZM41.6971 13.3117C39.5408 13.3117 38.2588 14.7281 37.8508 17.561H45.2811V16.9973C45.3103 15.8266 45.0116 14.9232 44.3851 14.2873C43.7586 13.6369 42.8626 13.3117 41.6971 13.3117Z" fill="url(#paint1_linear)"/>
<path d="M106.437 24.9756C106.437 24.3541 106.109 23.8555 105.453 23.4797C104.797 23.1039 103.552 22.7136 101.716 22.3089C99.8804 21.9042 98.3652 21.3767 97.1705 20.7263C95.9758 20.0614 95.0652 19.2593 94.4388 18.3198C93.8123 17.3803 93.4991 16.3035 93.4991 15.0894C93.4991 12.9359 94.3951 11.1653 96.1871 9.77778C97.9791 8.37579 100.325 7.6748 103.224 7.6748C106.342 7.6748 108.848 8.37579 110.742 9.77778C112.636 11.1798 113.583 13.0226 113.583 15.3062H106.196C106.196 13.4273 105.198 12.4878 103.202 12.4878C102.43 12.4878 101.782 12.7046 101.257 13.1382C100.733 13.5574 100.47 14.0849 100.47 14.7209C100.47 15.3713 100.791 15.8988 101.432 16.3035C102.073 16.7082 103.093 17.0407 104.492 17.3008C105.905 17.561 107.143 17.8717 108.207 18.2331C111.762 19.4472 113.539 21.6224 113.539 24.7588C113.539 26.8979 112.577 28.6396 110.654 29.9837C108.746 31.3279 106.269 32 103.224 32C101.199 32 99.3923 31.6387 97.8043 30.916C96.2162 30.1933 94.9778 29.2105 94.0891 27.9675C93.2004 26.7245 92.756 25.4164 92.756 24.0434H99.64C99.6691 25.1274 100.033 25.9223 100.733 26.4282C101.432 26.9196 102.328 27.1653 103.421 27.1653C104.426 27.1653 105.176 26.963 105.672 26.5583C106.182 26.1536 106.437 25.626 106.437 24.9756Z" fill="url(#paint2_linear)"/>
<path d="M75.204 27.2914C76.2498 28.3289 76.2498 30.0108 75.204 31.0483C74.1583 32.0857 72.4629 32.0857 71.4171 31.0483C70.3714 30.0108 70.3714 28.3289 71.4171 27.2914C72.4629 26.254 74.1583 26.254 75.204 27.2914Z" fill="url(#paint3_linear)"/>
<path d="M90.2327 16.1368C89.6898 15.443 89.098 14.7759 88.4559 14.1422C80.0909 5.84365 66.5264 5.84365 58.1614 14.1422C57.5193 14.7759 56.9275 15.443 56.3845 16.1368L60.2106 19.9325C60.7234 19.2187 61.3017 18.5383 61.9472 17.8979C68.2226 11.674 78.393 11.674 84.6701 17.8979C85.3156 18.5383 85.8939 19.2187 86.4066 19.9325L90.2327 16.1368Z" fill="url(#paint4_linear)"/>
<path d="M63.1071 22.8076L66.0591 25.7361C66.4423 24.9423 66.9635 24.1951 67.6275 23.5347C70.766 20.4261 75.8529 20.4261 78.9898 23.5347C79.6538 24.1951 80.1766 24.9423 80.5599 25.7361L83.5119 22.8076C83.0412 22.0671 82.4797 21.3667 81.8291 20.7196C77.1255 16.05 69.4935 16.05 64.7882 20.7196C64.1376 21.3667 63.5778 22.0671 63.1071 22.8076Z" fill="url(#paint5_linear)"/>
<defs>
<linearGradient id="paint0_linear" x2="1" gradientUnits="userSpaceOnUse" gradientTransform="translate(156.176 -6) scale(198.77 56) rotate(90)">
<stop stop-color="#5BADE9"/>
<stop offset="1" stop-color="#2B5EC3"/>
<stop offset="1" stop-color="#2B5EC3"/>
</linearGradient>
<linearGradient id="paint1_linear" x2="1" gradientUnits="userSpaceOnUse" gradientTransform="translate(156.176 -6) scale(198.77 56) rotate(90)">
<stop stop-color="#5BADE9"/>
<stop offset="1" stop-color="#2B5EC3"/>
<stop offset="1" stop-color="#2B5EC3"/>
</linearGradient>
<linearGradient id="paint2_linear" x2="1" gradientUnits="userSpaceOnUse" gradientTransform="translate(156.176 -6) scale(198.77 56) rotate(90)">
<stop stop-color="#5BADE9"/>
<stop offset="1" stop-color="#2B5EC3"/>
<stop offset="1" stop-color="#2B5EC3"/>
</linearGradient>
<linearGradient id="paint3_linear" x2="1" gradientUnits="userSpaceOnUse" gradientTransform="translate(156.176 -6) scale(198.77 56) rotate(90)">
<stop stop-color="#5BADE9"/>
<stop offset="1" stop-color="#2B5EC3"/>
<stop offset="1" stop-color="#2B5EC3"/>
</linearGradient>
<linearGradient id="paint4_linear" x2="1" gradientUnits="userSpaceOnUse" gradientTransform="translate(156.176 -6) scale(198.77 56) rotate(90)">
<stop stop-color="#5BADE9"/>
<stop offset="1" stop-color="#2B5EC3"/>
<stop offset="1" stop-color="#2B5EC3"/>
</linearGradient>
<linearGradient id="paint5_linear" x2="1" gradientUnits="userSpaceOnUse" gradientTransform="translate(156.176 -6) scale(198.77 56) rotate(90)">
<stop stop-color="#5BADE9"/>
<stop offset="1" stop-color="#2B5EC3"/>
<stop offset="1" stop-color="#2B5EC3"/>
</linearGradient>
</defs>
</svg>
